<svg width="16" height="16" viewBox="0 0 16 16" fill="none" xmlns="http://www.w3.org/2000/svg">
<path fill-rule="evenodd" clip-rule="evenodd" d="M1.52861 8.47138C1.46469 8.40746 1.41646 8.33379 1.38393 8.25516C1.35133 8.17656 1.33334 8.09037 1.33334 7.99998C1.33334 7.90958 1.35133 7.82339 1.38393 7.74479C1.41646 7.66616 1.46469 7.59249 1.52861 7.52857L5.29984 3.75733C5.56019 3.49699 5.9823 3.49699 6.24265 3.75733C6.503 4.01768 6.503 4.43979 6.24265 4.70014L3.60949 7.33331H14C14.3682 7.33331 14.6667 7.63179 14.6667 7.99998C14.6667 8.36817 14.3682 8.66664 14 8.66664H3.60949L6.24265 11.2998C6.503 11.5602 6.503 11.9823 6.24265 12.2426C5.9823 12.503 5.56019 12.503 5.29984 12.2426L1.52861 8.47138Z" fill="#111111" fill-opacity="0.48"/>
</svg>
