<svg width="25" height="24" viewBox="0 0 25 24" fill="none" xmlns="http://www.w3.org/2000/svg">
<g clip-path="url(#clip0)">
<path d="M22.6036 11.3813C22.5914 11.121 22.4764 10.8761 22.2837 10.7006C22.091 10.5251 21.8365 10.4333 21.5762 10.4454C21.3158 10.4576 21.071 10.5726 20.8955 10.7653C20.7199 10.958 20.6281 11.2125 20.6403 11.4728C20.7229 13.2299 20.2129 14.9638 19.1919 16.3962C18.1709 17.8286 16.6983 18.8764 15.0104 19.3715C13.3225 19.8666 11.5172 19.7802 9.88427 19.1262C8.25136 18.4722 6.88553 17.2885 6.00602 15.7651C5.12651 14.2418 4.78434 12.4671 5.03441 10.726C5.28449 8.9848 6.11232 7.37817 7.38502 6.16393C8.65772 4.9497 10.3015 4.19829 12.0525 4.03031C13.8034 3.86233 15.5601 4.28753 17.0404 5.23765C17.149 5.30731 17.2703 5.35489 17.3974 5.37767C17.5244 5.40045 17.6547 5.39799 17.7807 5.37043C17.9068 5.34286 18.0262 5.29074 18.1321 5.21703C18.2381 5.14332 18.3284 5.04946 18.3981 4.94083C18.4678 4.83219 18.5153 4.7109 18.5381 4.58387C18.5609 4.45685 18.5584 4.32658 18.5309 4.20051C18.5033 4.07444 18.4512 3.95503 18.3775 3.8491C18.3038 3.74317 18.2099 3.6528 18.1013 3.58314C16.2507 2.39614 14.055 1.86524 11.8666 2.07565C9.67815 2.28607 7.62385 3.22559 6.03335 4.74344C4.44286 6.26129 3.4084 8.26947 3.09599 10.4457C2.78358 12.6219 3.21134 14.84 4.3106 16.744C5.40987 18.648 7.11691 20.1275 9.15778 20.945C11.1986 21.7626 13.455 21.8708 15.5648 21.2523C17.6745 20.6338 19.5153 19.3245 20.7917 17.5345C22.0682 15.7444 22.7063 13.5775 22.6036 11.3813V11.3813Z" fill="white"/>
</g>
<defs>
<clipPath id="clip0">
<rect width="24" height="24" fill="white" transform="translate(0.5)"/>
</clipPath>
</defs>
</svg>
