<svg width="165" height="165" viewBox="0 0 165 165" fill="none" xmlns="http://www.w3.org/2000/svg">
<path d="M164.196 78.8426C164.095 76.673 163.136 74.6325 161.531 73.1698C159.925 71.7072 157.804 70.9423 155.635 71.0434C153.465 71.1445 151.425 72.1033 149.962 73.7089C148.499 75.3144 147.734 77.4353 147.835 79.6049C148.524 94.2471 144.274 108.696 135.766 120.633C127.258 132.57 114.986 141.302 100.92 145.427C86.8539 149.553 71.8098 148.833 58.2021 143.383C44.5945 137.933 33.2126 128.069 25.8833 115.374C18.5541 102.68 15.7026 87.8906 17.7866 73.381C19.8706 58.8715 26.7692 45.4829 37.375 35.3642C47.9809 25.2456 61.6789 18.9839 76.2703 17.5841C90.8618 16.1842 105.5 19.7275 117.837 27.6452C118.742 28.2257 119.753 28.6222 120.811 28.812C121.87 29.0019 122.955 28.9814 124.006 28.7517C125.056 28.522 126.052 28.0876 126.934 27.4734C127.817 26.8591 128.57 26.077 129.151 25.1717C129.731 24.2664 130.128 23.2556 130.317 22.1971C130.507 21.1386 130.487 20.053 130.257 19.0024C130.027 17.9518 129.593 16.9567 128.979 16.074C128.364 15.1912 127.582 14.4381 126.677 13.8577C111.256 3.96594 92.9584 -0.458194 74.7214 1.29524C56.4844 3.04867 39.3652 10.878 26.1111 23.5268C12.857 36.1756 4.23655 52.9103 1.63313 71.0455C-0.970284 89.1807 2.59432 107.665 11.7549 123.531C20.9154 139.398 35.1408 151.727 52.148 158.54C69.1552 165.353 87.9582 166.255 105.539 161.101C123.121 155.947 138.461 145.036 149.098 130.119C159.735 115.202 165.052 97.1437 164.196 78.8426V78.8426Z" fill="#6E41E2"/>
</svg>
