<svg width="137" height="30" viewBox="0 0 137 30" fill="none" xmlns="http://www.w3.org/2000/svg">
<path d="M2.49194 7.125L5.05964 14.0988C6.21228 17.2294 9.90974 18.5632 12.7955 16.8896L17.8214 13.9747C20.348 12.5094 19.7187 8.69687 16.8551 8.12128V8.12128C14.5617 7.66031 12.5754 9.75576 13.1582 12.0213L14.2352 16.2073C14.9041 18.8075 17.2485 20.625 19.9333 20.625H25.0678" stroke="#111111" stroke-width="3.73529"/>
<path d="M33.4452 19.8205H34.3447C35.3766 19.8205 36.1157 19.688 36.562 19.4231C37.0082 19.1581 37.2313 18.7328 37.2313 18.1471C37.2313 17.5614 37.0082 17.1361 36.562 16.8711C36.1157 16.6062 35.3766 16.4737 34.3447 16.4737H33.4452V19.8205ZM33.4452 13.4197H34.1983C35.4812 13.4197 36.1227 12.9107 36.1227 11.8927C36.1227 10.8747 35.4812 10.3657 34.1983 10.3657H33.4452V13.4197ZM29.3454 7.22809H35.4533C36.9036 7.22809 38.0053 7.57672 38.7583 8.27398C39.5113 8.97123 39.8879 9.97528 39.8879 11.2861C39.8879 12.081 39.7414 12.7434 39.4486 13.2733C39.1697 13.7893 38.7374 14.2285 38.1517 14.5911C38.7374 14.7027 39.2324 14.877 39.6368 15.114C40.0552 15.3372 40.3899 15.6161 40.6409 15.9508C40.9059 16.2854 41.0941 16.662 41.2057 17.0803C41.3172 17.4987 41.373 17.9449 41.373 18.419C41.373 19.1581 41.2405 19.8135 40.9756 20.3853C40.7246 20.957 40.362 21.4381 39.8879 21.8286C39.4277 22.2191 38.8629 22.5119 38.1935 22.7072C37.5242 22.9024 36.7711 23 35.9344 23H29.3454V7.22809ZM47.9282 14.2773H48.7022C49.511 14.2773 50.1316 14.11 50.5639 13.7753C50.9962 13.4406 51.2123 12.9595 51.2123 12.332C51.2123 11.7045 50.9962 11.2234 50.5639 10.8887C50.1316 10.554 49.511 10.3867 48.7022 10.3867H47.9282V14.2773ZM56.9437 23H51.8398L47.9282 16.9339V23H43.8284V7.22809H50.2083C51.0868 7.22809 51.8538 7.36057 52.5092 7.62553C53.1646 7.87654 53.7015 8.22517 54.1199 8.67141C54.5522 9.11765 54.8729 9.63362 55.0821 10.2193C55.3052 10.805 55.4168 11.4325 55.4168 12.1019C55.4168 13.3012 55.1239 14.2773 54.5382 15.0304C53.9665 15.7695 53.1158 16.2715 51.9863 16.5364L56.9437 23ZM61.9496 15.114C61.9496 15.7416 62.0681 16.3203 62.3052 16.8502C62.5423 17.3801 62.863 17.8403 63.2674 18.2308C63.6718 18.6212 64.139 18.928 64.6689 19.1512C65.2128 19.3603 65.7845 19.4649 66.3841 19.4649C66.9838 19.4649 67.5486 19.3603 68.0785 19.1512C68.6223 18.928 69.0965 18.6212 69.5009 18.2308C69.9192 17.8403 70.2469 17.3801 70.484 16.8502C70.7211 16.3203 70.8396 15.7416 70.8396 15.114C70.8396 14.4865 70.7211 13.9078 70.484 13.3779C70.2469 12.848 69.9192 12.3878 69.5009 11.9973C69.0965 11.6069 68.6223 11.307 68.0785 11.0979C67.5486 10.8747 66.9838 10.7632 66.3841 10.7632C65.7845 10.7632 65.2128 10.8747 64.6689 11.0979C64.139 11.307 63.6718 11.6069 63.2674 11.9973C62.863 12.3878 62.5423 12.848 62.3052 13.3779C62.0681 13.9078 61.9496 14.4865 61.9496 15.114ZM57.6615 15.114C57.6615 13.9427 57.8776 12.8549 58.3099 11.8509C58.7422 10.8329 59.3419 9.94739 60.1089 9.19435C60.8758 8.44132 61.7892 7.85562 62.8491 7.43727C63.9228 7.00497 65.1012 6.78882 66.3841 6.78882C67.6531 6.78882 68.8245 7.00497 69.8983 7.43727C70.9721 7.85562 71.8925 8.44132 72.6594 9.19435C73.4404 9.94739 74.047 10.8329 74.4793 11.8509C74.9116 12.8549 75.1277 13.9427 75.1277 15.114C75.1277 16.2854 74.9116 17.3801 74.4793 18.3981C74.047 19.4022 73.4404 20.2807 72.6594 21.0337C71.8925 21.7868 70.9721 22.3794 69.8983 22.8117C68.8245 23.2301 67.6531 23.4393 66.3841 23.4393C65.1012 23.4393 63.9228 23.2301 62.8491 22.8117C61.7892 22.3794 60.8758 21.7868 60.1089 21.0337C59.3419 20.2807 58.7422 19.4022 58.3099 18.3981C57.8776 17.3801 57.6615 16.2854 57.6615 15.114ZM80.1079 7.22809L82.8272 17.415L86.174 7.22809H89.4372L92.784 17.415L95.5033 7.22809H99.7914L95.085 23H90.9014L87.8056 13.859L84.7098 23H80.5263L75.8198 7.22809H80.1079ZM105.554 13.7335L110.553 7.22809H115.615L109.361 14.6957L116.201 23H110.888L105.554 16.1599V23H101.454V7.22809H105.554V13.7335Z" fill="#111111"/>
</svg>
