<svg width="343" height="230" viewBox="0 0 343 230" fill="none" xmlns="http://www.w3.org/2000/svg">
<g clip-path="url(#clip0)">
<path d="M15.1444 211.411C16.5914 211.93 18.1449 212.06 19.6554 211.788C21.1658 211.517 22.5823 210.853 23.7684 209.861C26.7889 207.274 27.7361 203.013 28.5065 199.067L30.7856 187.395L26.014 190.748C22.5823 193.158 19.0735 195.647 16.6976 199.139C14.3218 202.631 13.2852 207.398 15.1936 211.176" fill="#E6E6E6"/>
<path d="M15.8812 226.355C15.2806 221.89 14.6627 217.368 15.085 212.856C15.4592 208.848 16.6575 204.935 19.0971 201.724C20.392 200.024 21.9677 198.567 23.7533 197.419C24.2188 197.119 24.6473 197.872 24.1838 198.171C21.0941 200.163 18.7044 203.105 17.359 206.572C15.8732 210.428 15.6346 214.631 15.8906 218.727C16.0453 221.204 16.374 223.665 16.7041 226.123C16.7302 226.234 16.7139 226.351 16.6586 226.451C16.6033 226.55 16.5131 226.624 16.4061 226.658C16.2971 226.688 16.1808 226.673 16.0826 226.616C15.9844 226.559 15.9121 226.465 15.8815 226.354L15.8812 226.355Z" fill="#F2F2F2"/>
<path d="M20.2041 219.191C20.8246 220.153 21.6775 220.937 22.6808 221.465C23.6841 221.994 24.8039 222.25 25.9324 222.208C28.8329 222.068 31.25 220.003 33.4257 218.043L39.8623 212.244L35.6025 212.036C32.539 211.886 29.3965 211.746 26.4786 212.711C23.5607 213.676 20.8698 215.995 20.3363 219.076" fill="#E6E6E6"/>
<path d="M14.1836 228.921C17.075 223.701 20.4285 217.9 26.4212 216.045C28.0873 215.532 29.8343 215.347 31.5682 215.503C32.1148 215.551 31.9783 216.411 31.4328 216.363C28.5264 216.117 25.6256 216.9 23.2187 218.58C20.9025 220.189 19.0991 222.425 17.5729 224.797C16.6379 226.249 15.8005 227.764 14.963 229.276C14.6954 229.759 13.9128 229.41 14.1836 228.921Z" fill="#F2F2F2"/>
<path d="M215.98 118.717H89.1069V228.978H215.98V118.717Z" fill="white"/>
<path d="M216.349 229.355H88.7383V118.341H216.349V229.355ZM89.4759 228.602H215.611V119.093H89.4759V228.602Z" fill="#3F3D56"/>
<path d="M168.403 140.167H136.685V228.978H168.403V140.167Z" fill="#E3DAF9"/>
<path d="M168.403 140.167H136.685V228.978H168.403V140.167Z" fill="#E3DAF9"/>
<path opacity="0.2" d="M89.4756 126.808V144.697L215.98 152.962L215.607 130.888L89.4756 126.808Z" fill="black"/>
<path d="M223.356 108.556H81.7305V140.167H223.356V108.556Z" fill="white"/>
<path d="M223.725 140.543H81.3618V108.18H223.725V140.543ZM82.0995 139.791H222.988V108.933H82.0995V139.791Z" fill="#3F3D56"/>
<path d="M168.403 105.546H136.685V139.791H168.403V105.546Z" fill="#E3DAF9"/>
<path d="M149.148 75.6871C157.52 88.3508 149.632 108.719 149.632 108.719C149.632 108.719 128.168 108.555 119.796 95.8908C111.423 83.227 119.312 62.8591 119.312 62.8591C119.312 62.8591 140.775 63.0233 149.148 75.6871Z" fill="#E3DAF9"/>
<path d="M152.989 75.6871C144.616 88.3508 152.505 108.719 152.505 108.719C152.505 108.719 173.969 108.555 182.341 95.8908C190.714 83.227 182.825 62.8591 182.825 62.8591C182.825 62.8591 161.362 63.0233 152.989 75.6871Z" fill="#E3DAF9"/>
<path d="M130.415 85.2244C132.248 85.2244 133.734 83.7081 133.734 81.8376C133.734 79.967 132.248 78.4507 130.415 78.4507C128.581 78.4507 127.095 79.967 127.095 81.8376C127.095 83.7081 128.581 85.2244 130.415 85.2244Z" fill="#3F3D56"/>
<path d="M150.331 119.47C152.164 119.47 153.65 117.953 153.65 116.083C153.65 114.212 152.164 112.696 150.331 112.696C148.497 112.696 147.011 114.212 147.011 116.083C147.011 117.953 148.497 119.47 150.331 119.47Z" fill="#3F3D56"/>
<path d="M150.331 193.604C152.164 193.604 153.65 192.088 153.65 190.217C153.65 188.347 152.164 186.831 150.331 186.831C148.497 186.831 147.011 188.347 147.011 190.217C147.011 192.088 148.497 193.604 150.331 193.604Z" fill="#3F3D56"/>
<path d="M139.266 96.5139C140.488 96.5139 141.479 95.503 141.479 94.256C141.479 93.0089 140.488 91.998 139.266 91.998C138.044 91.998 137.053 93.0089 137.053 94.256C137.053 95.503 138.044 96.5139 139.266 96.5139Z" fill="#3F3D56"/>
<path d="M172.459 77.3217C173.682 77.3217 174.672 76.3108 174.672 75.0638C174.672 73.8168 173.682 72.8059 172.459 72.8059C171.237 72.8059 170.247 73.8168 170.247 75.0638C170.247 76.3108 171.237 77.3217 172.459 77.3217Z" fill="#3F3D56"/>
<path d="M158.076 130.383C159.298 130.383 160.289 129.372 160.289 128.125C160.289 126.878 159.298 125.867 158.076 125.867C156.854 125.867 155.863 126.878 155.863 128.125C155.863 129.372 156.854 130.383 158.076 130.383Z" fill="#3F3D56"/>
<path d="M144.798 159.736C146.021 159.736 147.011 158.725 147.011 157.478C147.011 156.231 146.021 155.22 144.798 155.22C143.576 155.22 142.585 156.231 142.585 157.478C142.585 158.725 143.576 159.736 144.798 159.736Z" fill="#3F3D56"/>
<path d="M156.232 169.896C157.454 169.896 158.445 168.885 158.445 167.638C158.445 166.391 157.454 165.38 156.232 165.38C155.01 165.38 154.019 166.391 154.019 167.638C154.019 168.885 155.01 169.896 156.232 169.896Z" fill="#3F3D56"/>
<path d="M153.65 212.42C154.872 212.42 155.863 211.409 155.863 210.162C155.863 208.915 154.872 207.905 153.65 207.905C152.428 207.905 151.437 208.915 151.437 210.162C151.437 211.409 152.428 212.42 153.65 212.42Z" fill="#3F3D56"/>
<path d="M290.125 224.822L286.078 224.821L284.152 208.893L290.126 208.893L290.125 224.822Z" fill="#FFB7B7"/>
<path d="M291.157 228.824L278.107 228.824V228.655C278.108 227.281 278.643 225.963 279.595 224.991C280.548 224.019 281.84 223.473 283.187 223.473H283.187L291.157 223.473L291.157 228.824Z" fill="#2F2E41"/>
<path d="M300.01 224.822L304.057 224.821L305.982 208.893L300.009 208.893L300.01 224.822Z" fill="#FFB7B7"/>
<path d="M298.978 223.473L306.948 223.473H306.948C308.295 223.473 309.587 224.019 310.54 224.991C311.492 225.963 312.027 227.281 312.028 228.655V228.824L298.978 228.824L298.978 223.473Z" fill="#2F2E41"/>
<path d="M289.225 100.349C290.963 96.7787 289.536 92.4469 286.038 90.6733C282.539 88.8996 278.294 90.3557 276.555 93.9256C274.817 97.4955 276.244 101.827 279.743 103.601C283.241 105.375 287.487 103.918 289.225 100.349Z" fill="#FFB7B7"/>
<path d="M277.682 146.79C277.682 146.79 275.448 156.287 276.565 160.845C277.682 165.404 281.032 196.554 281.032 196.554L283.266 221.246L292.201 222.006L291.085 193.135L292.201 168.063L298.531 192.375V221.332L308.007 221.712L308.211 184.018C308.211 184.018 308.955 154.388 304.115 150.589C299.275 146.79 298.531 146.03 298.531 146.03L277.682 146.79Z" fill="#2F2E41"/>
<path d="M291.17 105.003L299.648 109.562L300.764 149.069C300.764 149.069 295.924 146.03 288.478 149.829C281.032 153.628 276.192 150.969 276.192 150.969L280.66 133.874L278.799 111.081L281.461 108.616L291.17 105.003Z" fill="#CBCBCB"/>
<path d="M281.462 107.896L279.915 109.182C279.915 109.182 270.236 114.12 269.863 117.539L276.565 136.153C276.565 136.153 278.426 140.332 276.937 141.851C275.448 143.371 273.959 147.17 274.331 149.069C274.703 150.968 272.097 158.946 275.076 158.946C278.054 158.946 285.128 140.712 284.755 133.494C284.383 126.276 284.125 107.371 281.462 107.896Z" fill="#2F2E41"/>
<path d="M287.97 105.432L291.38 104.853C291.38 104.853 304.038 108.271 305.9 113.97L300.688 127.265C300.688 127.265 304.411 151.577 303.294 151.577H302.177C302.177 151.577 305.155 153.857 303.294 154.616C301.432 155.376 296.965 161.454 295.848 158.795C294.731 156.136 288.029 124.606 288.774 117.768C289.518 110.931 287.309 106.148 287.97 105.432Z" fill="#2F2E41"/>
<path d="M289.45 90.0698L289.781 89.3894L288.114 88.5443C288.114 88.5443 286.275 85.491 282.947 86.3491C279.619 87.2071 278.122 87.7206 278.122 87.7206L276.459 88.5743L277.294 89.4216L275.796 89.9351L276.797 90.4422L275.633 91.1248L276.259 94.6237C276.259 94.6237 277.3 91.9699 279.3 92.9841C281.301 93.9982 284.96 92.4598 284.96 92.4598L288.139 98.7374C288.139 98.7374 288.795 96.5368 289.964 97.1236C289.964 97.1236 292.952 92.2693 289.45 90.0698Z" fill="#2F2E41"/>
<path d="M299.805 156.728C299.621 156.27 299.538 155.776 299.561 155.282C299.585 154.787 299.714 154.304 299.94 153.866C300.167 153.428 300.484 153.046 300.871 152.746C301.257 152.447 301.704 152.238 302.178 152.134L303.611 140.186L308.281 144.238L306.204 154.963C306.323 155.787 306.141 156.628 305.693 157.325C305.245 158.022 304.562 158.528 303.773 158.745C302.985 158.963 302.145 158.878 301.414 158.506C300.682 158.135 300.11 157.502 299.805 156.728Z" fill="#FFB7B7"/>
<path d="M279.832 155.906C279.967 155.431 279.999 154.931 279.924 154.441C279.85 153.952 279.671 153.486 279.4 153.074C279.13 152.663 278.774 152.318 278.359 152.062C277.943 151.806 277.478 151.646 276.995 151.594L274.329 139.869L270.106 144.404L273.286 154.843C273.254 155.676 273.522 156.492 274.04 157.137C274.557 157.782 275.289 158.21 276.096 158.341C276.903 158.472 277.729 158.297 278.418 157.848C279.106 157.399 279.61 156.708 279.832 155.906H279.832Z" fill="#FFB7B7"/>
<path d="M299.985 110.874C299.985 110.874 304.825 108.974 306.314 114.673C307.803 120.371 309.665 131.767 309.665 131.767C309.757 138.104 309.427 138.104 309.665 144.303L308.548 150.001L302.219 149.241L302.495 134.736L299.24 119.991L299.985 110.874Z" fill="#2F2E41"/>
<path d="M273.214 115.26L270.919 115.51C270.919 115.51 268.746 117.159 268.746 120.958C268.746 124.757 268.374 136.153 268.374 136.153C268.374 136.153 268.163 136.42 269.863 146.03C270.692 150.714 272.124 152.925 272.124 152.925L276.746 148.546L276.193 137.293L277.682 131.215L273.214 115.26Z" fill="#2F2E41"/>
<path d="M342.631 229.355H0.368817C0.271001 229.355 0.17719 229.315 0.108024 229.244C0.0388571 229.174 0 229.078 0 228.978C0 228.879 0.0388571 228.783 0.108024 228.712C0.17719 228.642 0.271001 228.602 0.368817 228.602H342.631C342.729 228.602 342.823 228.642 342.892 228.712C342.961 228.783 343 228.879 343 228.978C343 229.078 342.961 229.174 342.892 229.244C342.823 229.315 342.729 229.355 342.631 229.355Z" fill="#3F3D56"/>
<path d="M85.0671 117.499C89.554 117.499 93.1913 113.788 93.1913 109.21C93.1913 104.632 89.554 100.92 85.0671 100.92C80.5802 100.92 76.9429 104.632 76.9429 109.21C76.9429 113.788 80.5802 117.499 85.0671 117.499Z" fill="#FFB8B8"/>
<path d="M82.1337 158.26C82.0314 158.26 81.9286 158.256 81.8254 158.246C81.3145 158.203 80.8183 158.05 80.3694 157.797C79.9205 157.544 79.529 157.197 79.2206 156.779C78.9122 156.361 78.6939 155.882 78.5799 155.371C78.4658 154.861 78.4587 154.333 78.559 153.819C78.5827 153.7 78.6125 153.582 78.6483 153.466L66.6576 138.997C66.2669 138.521 66.0368 137.93 66.0014 137.311C65.966 136.692 66.1271 136.078 66.461 135.559L66.4827 135.532L77.2758 124.673C77.865 124.081 78.6609 123.751 79.4883 123.757C80.3158 123.763 81.107 124.104 81.6879 124.705C82.2689 125.306 82.592 126.118 82.5861 126.963C82.5803 127.807 82.246 128.614 81.6568 129.207C81.6433 129.221 81.6296 129.234 81.6158 129.248L73.7988 136.83L82.3565 150.845C82.5186 150.853 82.6799 150.873 82.8392 150.905C83.7244 151.085 84.5123 151.595 85.0501 152.335C85.5878 153.074 85.8369 153.992 85.749 154.908C85.661 155.825 85.2424 156.676 84.5743 157.295C83.9062 157.914 83.0364 158.258 82.1338 158.26H82.1337Z" fill="#FFB8B8"/>
<path d="M98.448 224.579H102.504L104.432 208.619L98.4473 208.619L98.448 224.579Z" fill="#FFB8B8"/>
<path d="M97.4136 223.228L105.4 223.228H105.4C106.75 223.228 108.044 223.775 108.999 224.748C109.953 225.722 110.49 227.043 110.49 228.42V228.589L97.4138 228.59L97.4136 223.228Z" fill="#2F2E41"/>
<path d="M58.1406 218.858L61.6252 220.975L71.2853 208.269L66.1428 205.145L58.1406 218.858Z" fill="#FFB8B8"/>
<path d="M57.9295 217.157L64.7915 221.326L64.7918 221.326C65.9516 222.03 66.7895 223.176 67.1213 224.511C67.4531 225.846 67.2516 227.261 66.561 228.444L66.5609 228.445L66.4763 228.59L55.2412 221.764L57.9295 217.157Z" fill="#2F2E41"/>
<path d="M103.46 218.941H98.9188C98.5511 218.942 98.1963 218.804 97.9229 218.553C97.6495 218.302 97.477 217.956 97.4387 217.583L92.8607 173.675C92.8492 173.564 92.8023 173.461 92.7273 173.38C92.6524 173.3 92.5535 173.246 92.4459 173.229C92.3384 173.211 92.2281 173.23 92.1322 173.283C92.0363 173.335 91.96 173.419 91.9151 173.52L83.6563 192.179L69.0346 216.507C68.8454 216.819 68.5524 217.05 68.2093 217.16C67.8662 217.269 67.4959 217.249 67.1663 217.103L61.325 214.48C61.1319 214.394 60.959 214.266 60.8179 214.106C60.6768 213.946 60.5706 213.757 60.5065 213.552C60.4423 213.347 60.4217 213.13 60.4458 212.916C60.47 212.702 60.5385 212.496 60.6467 212.311L74.088 189.347L78.2104 169.998C76.9138 161.607 82.472 149.133 82.5284 149.007L82.5559 148.946L97.8662 142.841L97.943 142.936C103.981 163.154 107.66 184.911 104.944 217.55C104.91 217.929 104.739 218.281 104.465 218.538C104.191 218.795 103.832 218.939 103.46 218.941Z" fill="#2F2E41"/>
<path d="M81.9392 150.991L81.8679 150.838C81.8338 150.765 78.4295 143.439 75.8052 135.608C75.3008 134.094 75.1102 132.49 75.2453 130.896C75.3804 129.303 75.8383 127.756 76.5901 126.352C77.3516 124.934 78.3934 123.693 79.6495 122.708C80.9056 121.722 82.3486 121.014 83.8872 120.627C86.5581 119.974 89.3701 120.321 91.811 121.606C94.2518 122.891 96.159 125.028 97.185 127.628C99.2667 132.939 98.6032 138.609 97.9789 143.067L97.9664 143.156L97.8868 143.195L81.9392 150.991Z" fill="#E3DAF9"/>
<path d="M94.9174 104.527H82.0171V98.7897C84.8486 97.6419 87.6193 96.6658 89.2942 98.7897C90.7855 98.7897 92.2158 99.3942 93.2704 100.47C94.3249 101.546 94.9174 103.006 94.9174 104.527H94.9174Z" fill="#2F2E41"/>
<path d="M81.3033 97.7771C73.5912 97.7771 71.4326 107.64 71.4326 113.205C71.4326 116.308 72.8081 117.418 74.9694 117.794L75.7327 113.64L77.5205 117.972C78.1276 117.975 78.7654 117.963 79.4266 117.951L80.0328 116.677L81.3845 117.928C86.7982 117.936 91.1737 118.742 91.1737 113.205C91.1737 107.64 89.2807 97.7771 81.3033 97.7771Z" fill="#2F2E41"/>
<path d="M115.582 108.816C115.631 108.908 115.677 109.002 115.718 109.099C115.926 109.577 116.032 110.095 116.03 110.618C116.027 111.141 115.917 111.658 115.705 112.135C115.494 112.611 115.186 113.037 114.802 113.383C114.418 113.73 113.966 113.99 113.477 114.146C113.363 114.182 113.247 114.212 113.13 114.235L106.434 131.91C106.213 132.487 105.815 132.977 105.299 133.305C104.783 133.634 104.178 133.784 103.572 133.734L103.538 133.727L89.0241 129.269C88.2325 129.025 87.5683 128.47 87.1773 127.727C86.7864 126.983 86.7007 126.112 86.9391 125.304C87.1776 124.496 87.7206 123.818 88.4489 123.418C89.1772 123.018 90.0312 122.93 90.8232 123.173C90.8414 123.178 90.8594 123.184 90.8774 123.19L101.147 126.554L109.097 112.172C109.027 112.023 108.967 111.869 108.918 111.711C108.649 110.832 108.709 109.882 109.088 109.046C109.466 108.21 110.136 107.547 110.966 107.186C111.797 106.825 112.729 106.792 113.582 107.094C114.435 107.395 115.148 108.009 115.582 108.816L115.582 108.816Z" fill="#FFB8B8"/>
<path d="M244.607 63.9249C239.181 56.5162 229.25 54.7282 224.316 58.4906C219.381 62.2531 218.248 72.4769 223.673 79.8855C228.696 86.7431 237.795 88.6134 242.806 86.0442C242.79 86.1244 242.789 86.207 242.803 86.2876L243.086 87.7129C243.107 87.8216 243.156 87.9228 243.226 88.007C243.297 88.0912 243.388 88.1556 243.49 88.194C243.592 88.2325 243.701 88.2437 243.809 88.2266C243.916 88.2095 244.017 88.1647 244.103 88.0965L246.496 86.1892C246.581 86.121 246.648 86.0315 246.691 85.9294C246.733 85.8272 246.749 85.7158 246.737 85.6056C246.725 85.4954 246.686 85.3901 246.623 85.2998C246.56 85.2094 246.475 85.137 246.377 85.0894L245.09 84.4648C245.045 84.4441 244.997 84.4288 244.948 84.4194C248.811 80.2523 249.64 70.7974 244.607 63.9249Z" fill="#CCCCCC"/>
<path d="M232.738 61.1277C235.392 61.5578 237.783 63.0113 239.418 65.1881C241.052 67.3648 241.805 70.0987 241.521 72.8254C241.462 73.45 242.419 73.4459 242.477 72.8254C242.75 69.8865 241.925 66.9507 240.166 64.6067C238.407 62.2628 235.844 60.684 232.993 60.187C232.391 60.0827 232.132 61.0225 232.738 61.1277Z" fill="white"/>
<path d="M63.5093 73.2171C68.2529 65.3361 66.2137 55.2597 60.9644 51.9703C55.7151 48.6809 45.985 51.3821 41.2414 59.2632C36.8506 66.558 38.5079 75.8764 42.6988 79.6796C42.6198 79.6939 42.5442 79.7234 42.476 79.7667L41.2823 80.5611C41.1913 80.6216 41.1169 80.7049 41.0664 80.803C41.0158 80.9011 40.9906 81.0108 40.9932 81.1216C40.9959 81.2324 41.0262 81.3407 41.0814 81.4362C41.1366 81.5317 41.2148 81.6112 41.3086 81.6671L43.9294 83.2314C44.0232 83.2874 44.1294 83.318 44.2381 83.3203C44.3467 83.3226 44.4541 83.2965 44.5501 83.2446C44.646 83.1926 44.7274 83.1165 44.7864 83.0234C44.8454 82.9303 44.8802 82.8234 44.8873 82.7128L44.9808 81.2617C44.983 81.2111 44.9793 81.1604 44.9698 81.1107C50.1918 83.2345 59.109 80.5278 63.5093 73.2171Z" fill="#CCCCCC"/>
<path d="M61.6735 60.9306C62.262 63.6061 61.8213 66.41 60.4423 68.7636C59.0634 71.1172 56.8515 72.8407 54.2632 73.5785C53.6728 73.7539 54.0298 74.6593 54.6163 74.485C57.3941 73.659 59.7631 71.792 61.2482 69.2584C62.7333 66.7248 63.2248 63.712 62.6241 60.8242C62.4968 60.215 61.5453 60.3169 61.6735 60.9306Z" fill="white"/>
<path d="M300.684 16.1543C300.287 6.91452 293.066 -0.267416 286.912 0.00764362C280.758 0.282703 274.18 8.08134 274.577 17.3211C274.944 25.8736 281.432 32.646 286.992 33.4014C286.934 33.4584 286.888 33.5261 286.855 33.6009L286.302 34.9412C286.26 35.0433 286.244 35.1548 286.256 35.265C286.268 35.3752 286.307 35.4804 286.37 35.5707C286.433 35.661 286.518 35.7334 286.616 35.7809C286.714 35.8285 286.823 35.8496 286.931 35.8424L289.961 35.6405C290.069 35.6332 290.174 35.5979 290.265 35.5377C290.357 35.4775 290.431 35.3945 290.482 35.2966C290.533 35.1987 290.559 35.0892 290.557 34.9784C290.555 34.8675 290.525 34.7591 290.47 34.6634L289.751 33.4079C289.725 33.3647 289.694 33.3248 289.659 33.289C295.151 32.064 301.052 24.7254 300.684 16.1543Z" fill="#E3DAF9"/>
<path d="M292.418 7.02514C294.374 8.90522 295.549 11.4799 295.698 14.2177C295.848 16.9555 294.962 19.6474 293.223 21.7378C292.83 22.2205 293.622 22.7665 294.013 22.287C295.86 20.0152 296.798 17.1146 296.637 14.167C296.477 11.2194 295.23 8.44266 293.147 6.39369C292.707 5.96173 291.975 6.58998 292.418 7.02514Z" fill="white"/>
<path d="M244.074 42.8287C241.702 42.6762 239.399 41.9523 237.354 40.7163C235.308 39.4802 233.58 37.7673 232.309 35.7179C231.952 35.1369 231.487 34.4984 231.734 33.7833C231.82 33.5091 231.994 33.2727 232.229 33.1128C232.464 32.9529 232.745 32.879 233.026 32.9031C233.753 32.9933 234.222 33.719 234.311 34.4143C234.413 35.203 233.868 35.8222 233.194 36.1153C231.549 36.8314 229.889 35.7247 228.549 34.8415C225.495 32.829 222.136 31.009 218.436 30.7796C215.013 30.5674 211.341 31.9371 209.437 34.9664C209.104 35.4964 209.931 35.9861 210.263 35.4588C212.151 32.4545 215.969 31.3754 219.288 31.8398C221.267 32.1583 223.177 32.82 224.936 33.7963C225.849 34.2794 226.734 34.815 227.601 35.378C228.426 35.9654 229.3 36.4769 230.214 36.9066C231.738 37.5452 233.755 37.4953 234.819 36.0249C235.812 34.653 235.045 32.3691 233.384 31.9834C233.02 31.9101 232.643 31.9303 232.288 32.042C231.934 32.1537 231.611 32.3535 231.351 32.6234C231.09 32.8934 230.9 33.2252 230.796 33.5889C230.692 33.9526 230.678 34.337 230.755 34.7076C230.921 35.5155 231.517 36.306 231.979 36.9663C233.365 38.9566 235.172 40.6041 237.265 41.7875C239.358 42.9709 241.685 43.66 244.074 43.8042C244.689 43.8352 244.687 42.8596 244.074 42.8287H244.074Z" fill="#CCCCCC"/>
</g>
<defs>
<clipPath id="clip0">
<rect width="343" height="229.507" fill="white"/>
</clipPath>
</defs>
</svg>
